<?xml version="1.0" standalone="no"?>
<!DOCTYPE svg PUBLIC "-//W3C//DTD SVG 20010904//EN"
 "http://www.w3.org/TR/2001/REC-SVG-20010904/DTD/svg10.dtd">
<svg version="1.0" xmlns="http://www.w3.org/2000/svg"
 width="833.000000pt" height="226.000000pt" viewBox="0 0 833.000000 226.000000"
 preserveAspectRatio="xMidYMid meet">

<g transform="translate(0.000000,226.000000) scale(0.100000,-0.100000)"
fill="#000000" stroke="none">
<path d="M3259 1955 c-214 -43 -392 -188 -478 -391 -41 -99 -54 -172 -54 -314
0 -202 50 -342 166 -467 129 -138 257 -192 472 -200 187 -7 401 33 490 91 l25
16 0 310 0 310 -140 0 -139 0 22 -37 c20 -35 22 -53 25 -217 2 -99 1 -199 -3
-223 -6 -42 -7 -43 -63 -60 -84 -26 -239 -23 -315 6 -114 44 -196 133 -247
266 -19 48 -24 85 -28 190 -6 206 33 332 137 435 92 92 195 127 336 117 44 -4
102 -13 129 -22 63 -19 164 -76 195 -109 35 -37 41 -21 41 105 l0 106 -70 32
c-138 64 -346 87 -501 56z"/>
<path d="M352 1903 c23 -53 24 -45 -22 -528 -54 -563 -67 -670 -89 -713 -11
-23 -21 -44 -21 -47 0 -3 57 -4 128 -3 l127 3 8 95 c4 52 21 245 37 427 17
183 30 343 30 355 0 30 12 14 39 -52 33 -79 187 -447 265 -634 90 -214 77
-196 141 -196 62 0 59 -3 104 117 16 43 97 251 180 462 83 211 151 389 151
397 0 8 4 14 9 14 12 0 17 -46 37 -330 9 -124 23 -322 32 -440 l17 -215 153
-3 c83 -1 152 1 152 5 0 4 -11 23 -25 42 -29 43 -34 86 -70 631 -35 522 -35
566 -7 611 12 20 22 39 22 43 0 4 -77 5 -171 4 l-171 -3 -154 -400 c-85 -220
-161 -421 -170 -447 -8 -27 -19 -48 -23 -48 -5 0 -30 53 -56 118 -27 64 -94
225 -150 357 -56 132 -119 282 -141 333 l-39 92 -172 0 -172 0 21 -47z"/>
<path d="M4334 1534 c-34 -8 -85 -29 -115 -47 l-54 -32 -3 -83 c-2 -45 0 -82
3 -82 3 0 23 11 43 25 86 59 243 83 311 47 52 -26 74 -63 79 -131 l4 -58 -138
-6 c-107 -3 -153 -10 -199 -26 -161 -57 -233 -159 -223 -313 11 -150 129 -248
299 -248 89 0 156 26 218 87 30 29 56 53 57 53 1 0 5 -25 9 -55 l6 -55 107 0
107 0 -2 208 c-6 410 -9 474 -28 529 -21 61 -63 115 -116 149 -81 51 -240 67
-365 38z m266 -581 c0 -122 -9 -147 -60 -177 -50 -30 -167 -30 -207 0 -62 45
-81 135 -40 194 35 52 86 73 196 80 53 4 99 8 104 8 4 1 7 -46 7 -105z"/>
<path d="M5421 1533 c-27 -9 -69 -40 -105 -74 -33 -33 -61 -59 -63 -59 -2 0
-3 27 -3 60 l0 60 -115 0 -115 0 0 -455 0 -455 125 0 125 0 0 328 c0 292 2
331 18 361 26 52 63 74 129 78 71 5 118 -17 148 -67 19 -33 20 -54 23 -367 l3
-333 120 0 119 0 0 331 c0 289 2 335 17 366 31 67 152 95 221 53 63 -39 66
-58 70 -422 l3 -328 115 0 115 0 -3 368 c-3 351 -4 369 -24 413 -49 106 -139
159 -270 159 -97 0 -160 -25 -225 -90 l-57 -56 -33 45 c-49 66 -111 94 -212
98 -57 2 -95 -2 -126 -14z"/>
<path d="M6842 1533 c-125 -29 -232 -128 -283 -262 -31 -80 -39 -276 -14 -367
32 -119 118 -224 229 -278 68 -33 126 -45 213 -46 129 0 230 33 321 107 l42
34 0 75 c0 41 -3 74 -6 74 -4 0 -22 -14 -42 -31 -87 -77 -251 -111 -359 -75
-100 33 -166 120 -180 237 l-6 49 307 0 306 0 0 63 c0 79 -22 183 -50 237 -82
160 -271 232 -478 183z m191 -137 c49 -20 93 -77 106 -136 21 -98 38 -90 -185
-90 l-196 0 7 48 c11 74 52 142 104 169 50 26 115 30 164 9z"/>
<path d="M7690 1536 c-75 -22 -98 -34 -144 -76 -125 -115 -113 -310 25 -405
26 -18 95 -51 154 -75 59 -24 120 -54 135 -67 55 -46 47 -119 -18 -156 -69
-40 -216 -15 -321 55 -55 37 -61 30 -61 -80 l0 -83 45 -20 c129 -57 324 -64
431 -15 111 51 164 124 172 239 6 79 -13 140 -61 193 -39 45 -89 74 -223 129
-121 50 -154 78 -154 130 0 75 78 114 191 96 60 -10 133 -45 159 -75 24 -30
30 -16 30 73 l0 89 -47 20 c-100 42 -225 53 -313 28z"/>
<path d="M1804 1506 c-3 -7 72 -185 167 -397 94 -211 176 -396 182 -410 9 -22
2 -43 -44 -145 -29 -65 -79 -171 -110 -234 -32 -63 -56 -116 -55 -117 1 -2 38
0 83 4 63 4 82 10 92 24 11 19 153 332 241 534 27 61 111 253 188 428 98 222
137 320 128 323 -7 3 -44 4 -82 2 l-69 -3 -112 -275 c-61 -151 -115 -274 -119
-273 -4 1 -60 125 -125 275 l-118 273 -121 2 c-89 1 -123 -2 -126 -11z"/>
</g>
</svg>
